<svg xmlns="http://www.w3.org/2000/svg" width="800" height="800" fill="currentColor" viewBox="0 0 32 32">
    <path d="M-27.906 115.76a1 1 0 0 0-.606.467l-5.353 9.273a1 1 0 0 0 1.123 1.467l3.133-.84.838 3.13a1 1 0 0 0 1.832.243l4.908-8.5a1 1 0 0 0-.365-1.365 1 1 0 0 0-1.366.365l-3.7 6.41-.474-1.765a1 1 0 0 0-1.224-.71l-1.768.473 4.147-7.181a1 1 0 0 0-.365-1.366 1 1 0 0 0-.76-.101zM-12.854 115.861a1 1 0 0 0-.365 1.366l4.147 7.181-1.768-.472a1 1 0 0 0-1.224.709l-.473 1.765-3.701-6.41a1 1 0 0 0-1.366-.365 1 1 0 0 0-.365 1.365l4.908 8.5a1 1 0 0 0 1.832-.242l.838-3.131 3.133.84a1 1 0 0 0 1.123-1.467l-5.353-9.273a1 1 0 0 0-1.366-.366z"
          transform="translate(36 -100)"
    />
    <path d="M-20 102c-5.511 0-10 4.489-10 10s4.489 10 10 10 10-4.489 10-10-4.489-10-10-10zm0 2c4.43 0 8 3.57 8 8s-3.57 8-8 8-8-3.57-8-8 3.57-8 8-8z"
          transform="translate(36 -100)"
    />
    <path d="M20.469 46.977a1.406 1.406 0 0 0-1.02.12L16 48.95l-3.45-1.851a1.406 1.406 0 0 0-2.048 1.488l.695 3.853-2.826 2.71a1.406 1.406 0 0 0 .781 2.408l3.88.529 1.702 3.525a1.406 1.406 0 0 0 2.532 0l1.703-3.525 3.879-.53a1.406 1.406 0 0 0 .78-2.408l-2.825-2.709.695-3.853a1.406 1.406 0 0 0-1.03-1.61Zm-6.684 3.974 1.55.832a1.406 1.406 0 0 0 1.33 0l1.55-.832-.313 1.733a1.406 1.406 0 0 0 .41 1.263l1.27 1.217-1.742.238a1.406 1.406 0 0 0-1.074.782L16 57.77l-.766-1.586a1.406 1.406 0 0 0-1.074-.782l-1.742-.238 1.27-1.217a1.406 1.406 0 0 0 .41-1.263z"
          transform="matrix(-.71241 0 0 -.7105 27.399 50.842)"
    />
</svg>
