<svg xmlns="http://www.w3.org/2000/svg"
     fill="currentColor" viewBox="0 0 74 74">
    <path d="m72.3 43.9-.2-.3C70.8 41.7 68.2 41 66 42l-12.9 6.1c0-.1 0-.2-.1-.2v-.1c-.8-2.1-3.1-3.4-5.4-3-2.3.4-6.8.7-10.7-2.2-5.1-3.8-11.3-2-14.9-.4v-2.5c0-1.1-.9-2-2-2H2.9c-1.1 0-2 .9-2 2v26.7c0 1.1.9 2 2 2H20c1.1 0 2-.9 2-2v-2h21.7c2 0 3.9-.5 5.6-1.5l21.5-12.2c1.2-.7 2-1.8 2.3-3.1.2-1.3 0-2.6-.8-3.7zM18 64.4H4.9V41.8H18v22.6zm51.1-17.7c0 .1-.1.3-.4.5L47.3 59.4c-1.1.6-2.4 1-3.6 1H22V46.8c2.2-1.3 8.1-4.1 12.5-.9 5.1 3.8 10.8 3.4 13.8 2.9.4-.1.8.1 1 .4v.1c.1.3 0 .5-.2.7-.1 0-.1.1-.2.1-2 .9-5.2 1.9-8.8 1.4-1.1-.1-2.1.6-2.2 1.7s.6 2.1 1.7 2.2c.8.1 1.6.1 2.4.1 3.5 0 6.5-1 8.6-1.9.3-.1.6-.3.8-.5l16.4-7.7c.4-.2.9-.1 1.1.3l.2.3c.1.4.1.6 0 .7z"
          />
    <path d="M46.4 40.8c10 0 18.2-7.9 18.2-17.6 0-9.7-8.2-17.6-18.2-17.6s-18.2 7.9-18.2 17.6c.1 9.7 8.2 17.6 18.2 17.6zm0-31.2c7.8 0 14.2 6.1 14.2 13.6s-6.4 13.6-14.2 13.6c-7.8 0-14.2-6.1-14.2-13.6S38.6 9.6 46.4 9.6z"
          />
    <path d="M41.5 31.2h3v1.2c0 1.1.9 2 2 2s2-.9 2-2v-1.5c2-.7 3.4-2.5 3.4-4.7 0-2.8-2.3-5-5.1-5h-.6c-.6 0-1.1-.4-1.1-1s.5-1 1.1-1h5.2c1.1 0 2-.9 2-2s-.9-2-2-2h-3V14c0-1.1-.9-2-2-2s-2 .9-2 2v1.5c-2 .7-3.4 2.5-3.4 4.7 0 2.8 2.3 5 5.1 5h.6c.6 0 1.1.4 1.1 1s-.5 1-1.1 1h-5.2c-1.1 0-2 .9-2 2s.9 2 2 2z"
          /></svg>
